<?xml version="1.0" encoding="utf-8"?>
<!-- Generator: Adobe Illustrator 16.0.0, SVG Export Plug-In . SVG Version: 6.00 Build 0)  -->
<!DOCTYPE svg PUBLIC "-//W3C//DTD SVG 1.1//EN" "http://www.w3.org/Graphics/SVG/1.1/DTD/svg11.dtd">
<svg version="1.1" xmlns="http://www.w3.org/2000/svg" xmlns:xlink="http://www.w3.org/1999/xlink" x="0px" y="0px" width="1963px"
	 height="1152px" viewBox="0 0 1963 1152" enable-background="new 0 0 1963 1152" xml:space="preserve">
<g id="Layer_4">
</g>
<g id="Layer_2">
	<g>
		<path fill-rule="evenodd" clip-rule="evenodd" d="M1568.85,583.85l0.351-3.6h16.8l-0.35,3.6h-6.5l-1.7,17.15h-3.851l1.7-17.15
			H1568.85z M1609.05,580.25L1607,601h-3.7l1.3-13.3L1598.9,601h-3.301l-3.1-13.3l-1.3,13.3h-3.75l2.05-20.45v-0.3h4.95l3.35,14.95
			l6.3-14.95H1609.05z M904.85,484.8h-27.4l-2.4,13.2h27.45l-4.55,25.85h-27.1l-2.2,12.7h27.75l-4.65,26h-61.1L848,458.8h61.25
			L904.85,484.8z M837.25,471.95l-5.1,29.95c-0.966,5.2-6.216,7.367-15.75,6.5c9.5,2.267,13.833,5.85,13,10.75l-7.25,43.4h-33.8
			l7.05-41.15c0-0.333-0.167-0.5-0.5-0.5h-7.95l-7.1,41.65h-33.8L763.7,458.8h59.1C834.066,458.8,838.883,463.183,837.25,471.95z
			 M935.4,544l-4.3,18.55h-33.35l32.35-103.6h46.7l2,103.6h-32.7l1.35-18.55H935.4z M949.4,525.65l1.9-43.45l-13.1,43.45H949.4z
			 M792.85,484.8l-2.4,15.6h8c0.3,0,0.517-0.15,0.65-0.45l1.9-15.15H792.85z M708.1,413.3c6.033-0.433,12.133-0.533,18.3-0.3
			c2.6,0.1,6,0.567,10.2,1.4c-6.434,1.067-18.983,6.75-37.65,17.05c-8.767,4.133-17.134,9.483-25.1,16.05
			c-8,6.567-13.25,16.733-15.75,30.5l-15.75,96c-1.667,7.134,1.85,12.816,10.55,17.05c8.8,4.334,18.784,5.566,29.95,3.7
			c11.167-1.9,29.3-7.866,54.4-17.9c-15.934,19.534-36.184,34.434-60.75,44.7c-20.7,10.167-45.467,17.684-74.3,22.55
			c3.8-13.466-0.134-21.149-11.8-23.05c-25.1-1.366-54.066,7.4-86.9,26.3c2.133-23.1-11.667-37.85-41.4-44.25l12.95-73.1
			c1.3-8.233,2.5-16.483,3.6-24.75c0.1-0.833,0.133-1.7,0.1-2.6c-0.633-9.733-5.2-16.55-13.7-20.45
			c-3.733-1.733-7.617-2.8-11.65-3.2c-6.267-0.467-12.383,0.033-18.35,1.5c-5.433,1.1-10.683,2.783-15.75,5.05
			c-4.333,1.934-8.55,4.05-12.65,6.35c-4.133,2.333-8.083,5.017-11.85,8.05c-10.633,8.6-21.017,19.75-31.15,33.45
			c7.633-28.533,20.7-52.433,39.2-71.7c8.867-8.733,18.35-16.617,28.45-23.65c10.934-7.6,22.617-13.85,35.05-18.75
			c2.133-0.767,4.267-1.566,6.4-2.4c7.7-2.9,15.183-5.15,22.45-6.75l11.8-2.2c23.167-4.167,39.75-4.467,49.75-0.9
			c0.3,0.067,0.583,0.167,0.85,0.3l1.4,0.6c-0.533,0.367-1.517,0.683-2.95,0.95c-6.466,1.333-12.65,3.317-18.55,5.95
			c-5.167,2.267-9.833,5.3-14,9.1c-3.467,3.1-6.083,6.8-7.85,11.1c-1.9,4.667-1.617,9.167,0.85,13.5c1.3,2.233,3.083,3.867,5.35,4.9
			c2.8,1.233,5.85,2.066,9.15,2.5c5.5,0.667,11.033,0.85,16.6,0.55c0,0.033,0,0.067,0,0.1l-17.35,118.05
			c15.9,12.867,33.95,12.267,54.15-1.8l11.85-81.35c0.653-4.642,0.503-8.976-0.45-13c-2.433-8.8-9.083-16.033-19.95-21.7
			c9.267-2.133,17.816-2.017,25.65,0.35c0.167-0.133,0.533-0.383,1.1-0.75C633.467,431.133,668.633,416.767,708.1,413.3z
			 M666.05,458.75l43.55,0.05l7.1,45.35l8.5-45.35h30.35L737.7,562.4H706l-6.3-46.2l-7.65,46.2H661.3l15.95-92.4L666,458.95
			L666.05,458.75z M1047,458.95l-12.5,11.75l-9.6,56.4l-0.65,7c0.033,0,0.083,0,0.15,0c18.8,0.367,36.333-3.917,52.6-12.85
			c0.833-0.467,1.684-0.934,2.55-1.4c-7.5,22.867-22.983,38.316-46.45,46.35c-0.8,0.233-1.583,0.483-2.35,0.75l-0.2-3.6
			c-0.767-5.733-3.8-8.1-9.1-7.1l-0.9,6.35h-5.6v-0.05h-29.8l17.5-103.75l44.1-0.1L1047,458.95z"/>
		<path fill-rule="evenodd" clip-rule="evenodd" fill="#CC0000" d="M1558.55,575.75l-4.75,26.85h-41.3l21.95,14.45l-12.7,66.55
			l-45.05,39.051l22.1-120.051h-17.7l4.75-26.85H1558.55z M1341,576.7l-20.65,106.1H1292.2l14.25-69.1l-21.4,69.1h-20.85l5.6-68.5
			l-13.399,68.5h-27.95l20.45-106.1h39.899c0.067,6.733-0.05,14.283-0.35,22.649L1286,624.7l14.65-48H1341z M1438,575.4l4.7,47.2
			l8.95-47.2h27.05l-21.05,107.55h-27.801l-3.05-47.5l-9.149,47.5h-27l20.85-107.55H1438z M1404,575.75l-5.4,26.85h-22.1
			l-2.45,13.65h21.65l-5.101,26.7h-21.949l-2.2,13.149h22.45l-5.45,26.851h-54.95l21-107.2H1404z M870.55,575.75h40.2
			c10.533,0,15,4.55,13.4,13.65l-15.3,80.199c-2,8.9-8.383,13.351-19.15,13.351h-40.15c-10.633,0-15.05-4.45-13.25-13.351
			l15.3-80.199C853.4,580.3,859.717,575.75,870.55,575.75z M965.4,575.75l-15.6,80.2v0.149h7.45c0.233,0,0.35-0.05,0.35-0.149
			l15.45-80.2h32.2l-17.8,93.85c-1.134,5.2-3.7,8.9-7.7,11.101c-3.066,1.5-6.833,2.25-11.3,2.25H928.3
			c-10.633,0-15.05-4.45-13.25-13.351l18-93.85H965.4z M745.25,588.3c-8.566,23.434-22.184,45.066-40.85,64.9
			c-36.867,39.6-82.367,60.316-136.5,62.149c-54,1.967-100.75-15.55-140.25-52.55c-36.533-34.133-56.983-73.2-61.35-117.2
			c7.333-15.333,19.117-28.517,35.35-39.55c-0.1,3-0.1,6.767,0,11.3c1.733,49.466,20.717,91.117,56.95,124.95
			c36.1,33.834,78.883,49.884,128.35,48.15c49.466-1.733,91.116-20.717,124.95-56.95c13.333-14.2,23.8-29.533,31.4-46L745.25,588.3z
			 M736.75,406.25c-17.434-2.367-34.383-1.933-50.85,1.3c-21.667-21.066-47.933-35.117-78.8-42.15l-3.05-0.65
			c-47.1-8.233-88.966-0.033-125.6,24.6c-15.667,10.433-29.233,21.9-40.7,34.4c-32,18.6-56.05,45.467-72.15,80.6
			c0.3-4.533,0.717-8.983,1.25-13.35c0.2-1.5,0.467-3.017,0.8-4.55c11.067-56.067,40.3-99.934,87.7-131.6
			c45.333-30.367,97.55-40.567,156.65-30.6c0.967,0.233,2,0.45,3.1,0.65c0.966,0.233,2.05,0.45,3.25,0.65
			C665.617,336.683,705.083,363.583,736.75,406.25z M788.55,602.75H767.7l1.65-27h79.4l-5.05,27h-42l22.65,14.8L803.75,721
			l-30.65-37.05L788.55,602.75z M888.75,602.6h-7.15c-0.333,0-0.517,0.167-0.55,0.5L870.9,655.95c0,0.1,0.05,0.149,0.15,0.149h7.65
			c0.1,0,0.15-0.05,0.15-0.149l10-52.851C888.883,602.767,888.85,602.6,888.75,602.6z M1225.85,576.05l-1.5,106.9h-34l2.45-19.2
			h-12.2l-5.699,19.2h-34.15l37.3-106.9H1225.85z M1081.8,589.4l-5.95,30.899v0.5c-1.333,5-7.25,7.101-17.75,6.3
			c10.567,2.301,15.301,5.9,14.2,10.801l-9.149,45.05h-31.9l8.5-42.45l0.15-0.5h-7.801l-8.649,42.95H991.1l21-107.2h56.15
			C1078.85,575.75,1083.367,580.3,1081.8,589.4z M1117.05,575.75l4.351,46.85l9.149-46.85h27.15L1137,682.8h-28.15l-3.5-47.649
			l-9,47.649h-27l20.851-107.05H1117.05z M1035.85,619h7.801v-0.65l3-15.25c0.033-0.333-0.051-0.5-0.25-0.5h-7.351L1035.85,619z
			 M1199,600c-3,7.7-5.383,14.634-7.15,20.8c-3.699,10.2-6.366,18.233-8,24.101h11.551c0.267-7.167,0.916-15.2,1.949-24.101
			C1197.717,614.4,1198.267,607.467,1199,600z"/>
	</g>
</g>
</svg>
